<svg width="289" height="365" viewBox="0 0 289 365" fill="none" xmlns="http://www.w3.org/2000/svg">
<path d="M107.5 219C128.211 219 145 202.211 145 181.5C145 160.789 128.211 144 107.5 144C86.7893 144 70 160.789 70 181.5C70 202.211 86.7893 219 107.5 219Z" fill="white"/>
<path d="M107.5 74C166.871 74 215 122.129 215 181.5C215 240.871 166.871 289 107.5 289C48.1294 289 0 240.871 0 181.5C1.61066e-07 122.129 48.1294 74 107.5 74ZM107 106C65.5786 106 32 139.579 32 181C32 222.421 65.5786 256 107 256C148.421 256 182 222.421 182 181C182 139.579 148.421 106 107 106Z" fill="white"/>
<path d="M289 182.5C289 282.74 207.74 364 107.5 364C80.5331 364 49 368.5 49 348C49 327.5 68.5 331.5 107.5 331.5C164.5 331.5 252 298.5 257.5 182.5C261.878 90.1635 182.5 33 107.5 33C72.0001 32 49 38.8041 49 17.5C49 -3.80416 72 0.99999 107.5 0.999993C207.74 0.999993 289 82.2603 289 182.5Z" fill="white"/>
</svg>
