<?xml version="1.0" encoding="UTF-8"?>
<!--Generator: Apple Native CoreSVG 123-->
<!DOCTYPE svg
PUBLIC "-//W3C//DTD SVG 1.1//EN"
       "http://www.w3.org/Graphics/SVG/1.1/DTD/svg11.dtd">
<svg version="1.1" xmlns="http://www.w3.org/2000/svg" xmlns:xlink="http://www.w3.org/1999/xlink" width="3300" height="2200">
 <!--glyph: "uni1002AF.medium", point size: 100.000000, font version: "Version 15.0d7e11", template writer version: "5"-->
 <g id="Notes">
  <rect height="2200" id="artboard" style="fill:white;opacity:1" width="3300" x="0" y="0"/>
  <line id="" style="fill:none;stroke:black;opacity:1;stroke-width:0.5;" x1="263" x2="3036" y1="292" y2="292"/>
  <text style="stroke:none;fill:black;font-family:-apple-system,&quot;SF Pro Display&quot;,&quot;SF Pro Text&quot;,Helvetica,sans-serif;font-weight:bold;" transform="matrix(1 0 0 1 263 322)">Weight/Scale Variations</text>
  <text style="stroke:none;fill:black;font-family:-apple-system,&quot;SF Pro Display&quot;,&quot;SF Pro Text&quot;,Helvetica,sans-serif;text-anchor:middle;" transform="matrix(1 0 0 1 559.711 322)">Ultralight</text>
  <text style="stroke:none;fill:black;font-family:-apple-system,&quot;SF Pro Display&quot;,&quot;SF Pro Text&quot;,Helvetica,sans-serif;text-anchor:middle;" transform="matrix(1 0 0 1 856.422 322)">Thin</text>
  <text style="stroke:none;fill:black;font-family:-apple-system,&quot;SF Pro Display&quot;,&quot;SF Pro Text&quot;,Helvetica,sans-serif;text-anchor:middle;" transform="matrix(1 0 0 1 1153.13 322)">Light</text>
  <text style="stroke:none;fill:black;font-family:-apple-system,&quot;SF Pro Display&quot;,&quot;SF Pro Text&quot;,Helvetica,sans-serif;text-anchor:middle;" transform="matrix(1 0 0 1 1449.84 322)">Regular</text>
  <text style="stroke:none;fill:black;font-family:-apple-system,&quot;SF Pro Display&quot;,&quot;SF Pro Text&quot;,Helvetica,sans-serif;text-anchor:middle;" transform="matrix(1 0 0 1 1746.56 322)">Medium</text>
  <text style="stroke:none;fill:black;font-family:-apple-system,&quot;SF Pro Display&quot;,&quot;SF Pro Text&quot;,Helvetica,sans-serif;text-anchor:middle;" transform="matrix(1 0 0 1 2043.27 322)">Semibold</text>
  <text style="stroke:none;fill:black;font-family:-apple-system,&quot;SF Pro Display&quot;,&quot;SF Pro Text&quot;,Helvetica,sans-serif;text-anchor:middle;" transform="matrix(1 0 0 1 2339.98 322)">Bold</text>
  <text style="stroke:none;fill:black;font-family:-apple-system,&quot;SF Pro Display&quot;,&quot;SF Pro Text&quot;,Helvetica,sans-serif;text-anchor:middle;" transform="matrix(1 0 0 1 2636.69 322)">Heavy</text>
  <text style="stroke:none;fill:black;font-family:-apple-system,&quot;SF Pro Display&quot;,&quot;SF Pro Text&quot;,Helvetica,sans-serif;text-anchor:middle;" transform="matrix(1 0 0 1 2933.4 322)">Black</text>
  <line id="" style="fill:none;stroke:black;opacity:1;stroke-width:0.5;" x1="263" x2="3036" y1="1903" y2="1903"/>
  <g id="" transform="matrix(1 0 0 1 263 1933)">
   <path d="M 9.24805 0.830078 C 13.5547 0.830078 17.1387 -2.74414 17.1387 -7.05078 C 17.1387 -11.3574 13.5449 -14.9316 9.23828 -14.9316 C 4.94141 -14.9316 1.36719 -11.3574 1.36719 -7.05078 C 1.36719 -2.74414 4.95117 0.830078 9.24805 0.830078 Z M 9.24805 -0.654297 C 5.70312 -0.654297 2.87109 -3.49609 2.87109 -7.05078 C 2.87109 -10.6055 5.69336 -13.4473 9.23828 -13.4473 C 12.793 -13.4473 15.6348 -10.6055 15.6445 -7.05078 C 15.6543 -3.49609 12.8027 -0.654297 9.24805 -0.654297 Z M 9.22852 -3.42773 C 9.69727 -3.42773 9.9707 -3.74023 9.9707 -4.25781 L 9.9707 -6.31836 L 12.1973 -6.31836 C 12.6953 -6.31836 13.0371 -6.57227 13.0371 -7.04102 C 13.0371 -7.51953 12.7148 -7.7832 12.1973 -7.7832 L 9.9707 -7.7832 L 9.9707 -10.0098 C 9.9707 -10.5273 9.69727 -10.8496 9.22852 -10.8496 C 8.75977 -10.8496 8.50586 -10.5078 8.50586 -10.0098 L 8.50586 -7.7832 L 6.29883 -7.7832 C 5.78125 -7.7832 5.44922 -7.51953 5.44922 -7.04102 C 5.44922 -6.57227 5.80078 -6.31836 6.29883 -6.31836 L 8.50586 -6.31836 L 8.50586 -4.25781 C 8.50586 -3.75977 8.75977 -3.42773 9.22852 -3.42773 Z"/>
  </g>
  <g id="" transform="matrix(1 0 0 1 281.506 1933)">
   <path d="M 11.709 2.91016 C 17.1582 2.91016 21.6699 -1.60156 21.6699 -7.05078 C 21.6699 -12.4902 17.1484 -17.0117 11.6992 -17.0117 C 6.25977 -17.0117 1.74805 -12.4902 1.74805 -7.05078 C 1.74805 -1.60156 6.26953 2.91016 11.709 2.91016 Z M 11.709 1.25 C 7.09961 1.25 3.41797 -2.44141 3.41797 -7.05078 C 3.41797 -11.6504 7.08984 -15.3516 11.6992 -15.3516 C 16.3086 -15.3516 20 -11.6504 20.0098 -7.05078 C 20.0195 -2.44141 16.3184 1.25 11.709 1.25 Z M 11.6895 -2.41211 C 12.207 -2.41211 12.5195 -2.77344 12.5195 -3.33984 L 12.5195 -6.23047 L 15.5762 -6.23047 C 16.123 -6.23047 16.5039 -6.51367 16.5039 -7.03125 C 16.5039 -7.55859 16.1426 -7.86133 15.5762 -7.86133 L 12.5195 -7.86133 L 12.5195 -10.9277 C 12.5195 -11.5039 12.207 -11.8555 11.6895 -11.8555 C 11.1719 -11.8555 10.8789 -11.4844 10.8789 -10.9277 L 10.8789 -7.86133 L 7.83203 -7.86133 C 7.26562 -7.86133 6.89453 -7.55859 6.89453 -7.03125 C 6.89453 -6.51367 7.28516 -6.23047 7.83203 -6.23047 L 10.8789 -6.23047 L 10.8789 -3.33984 C 10.8789 -2.79297 11.1719 -2.41211 11.6895 -2.41211 Z"/>
  </g>
  <g id="" transform="matrix(1 0 0 1 304.924 1933)">
   <path d="M 14.9707 5.67383 C 21.9336 5.67383 27.6953 -0.078125 27.6953 -7.04102 C 27.6953 -14.0039 21.9238 -19.7559 14.9609 -19.7559 C 8.00781 -19.7559 2.25586 -14.0039 2.25586 -7.04102 C 2.25586 -0.078125 8.01758 5.67383 14.9707 5.67383 Z M 14.9707 3.85742 C 8.93555 3.85742 4.08203 -1.00586 4.08203 -7.04102 C 4.08203 -13.0762 8.92578 -17.9395 14.9609 -17.9395 C 21.0059 -17.9395 25.8594 -13.0762 25.8691 -7.04102 C 25.8789 -1.00586 21.0156 3.85742 14.9707 3.85742 Z M 14.9512 -1.06445 C 15.5176 -1.06445 15.8691 -1.45508 15.8691 -2.06055 L 15.8691 -6.13281 L 20.1074 -6.13281 C 20.6934 -6.13281 21.1133 -6.46484 21.1133 -7.02148 C 21.1133 -7.59766 20.7227 -7.93945 20.1074 -7.93945 L 15.8691 -7.93945 L 15.8691 -12.1875 C 15.8691 -12.8027 15.5176 -13.1934 14.9512 -13.1934 C 14.3848 -13.1934 14.0625 -12.7832 14.0625 -12.1875 L 14.0625 -7.93945 L 9.83398 -7.93945 C 9.21875 -7.93945 8.80859 -7.59766 8.80859 -7.02148 C 8.80859 -6.46484 9.23828 -6.13281 9.83398 -6.13281 L 14.0625 -6.13281 L 14.0625 -2.06055 C 14.0625 -1.47461 14.3848 -1.06445 14.9512 -1.06445 Z"/>
  </g>
  <text style="stroke:none;fill:black;font-family:-apple-system,&quot;SF Pro Display&quot;,&quot;SF Pro Text&quot;,Helvetica,sans-serif;font-weight:bold;" transform="matrix(1 0 0 1 263 1953)">Design Variations</text>
  <text style="stroke:none;fill:black;font-family:-apple-system,&quot;SF Pro Display&quot;,&quot;SF Pro Text&quot;,Helvetica,sans-serif;" transform="matrix(1 0 0 1 263 1971)">Symbols are supported in up to nine weights and three scales.</text>
  <text style="stroke:none;fill:black;font-family:-apple-system,&quot;SF Pro Display&quot;,&quot;SF Pro Text&quot;,Helvetica,sans-serif;" transform="matrix(1 0 0 1 263 1989)">For optimal layout with text and other symbols, vertically align</text>
  <text style="stroke:none;fill:black;font-family:-apple-system,&quot;SF Pro Display&quot;,&quot;SF Pro Text&quot;,Helvetica,sans-serif;" transform="matrix(1 0 0 1 263 2007)">symbols with the adjacent text.</text>
  <rect height="14" id="" style="fill:#00AEEF;stroke:none;opacity:0.4;" width="3" x="776" y="1919"/>
  <g id="" transform="matrix(1 0 0 1 779 1933)">
   <path d="M 10.5273 0 L 12.373 0 L 7.17773 -14.0918 L 5.43945 -14.0918 L 0.244141 0 L 2.08984 0 L 3.50586 -4.0332 L 9.11133 -4.0332 Z M 6.2793 -11.9531 L 6.33789 -11.9531 L 8.59375 -5.52734 L 4.02344 -5.52734 Z"/>
  </g>
  <rect height="14" id="" style="fill:#00AEEF;stroke:none;opacity:0.4;" width="3" x="791.617" y="1919"/>
  <text style="stroke:none;fill:black;font-family:-apple-system,&quot;SF Pro Display&quot;,&quot;SF Pro Text&quot;,Helvetica,sans-serif;font-weight:bold;" transform="matrix(1 0 0 1 776 1953)">Margins</text>
  <text style="stroke:none;fill:black;font-family:-apple-system,&quot;SF Pro Display&quot;,&quot;SF Pro Text&quot;,Helvetica,sans-serif;" transform="matrix(1 0 0 1 776 1971)">Leading and trailing margins on the left and right side of each symbol</text>
  <text style="stroke:none;fill:black;font-family:-apple-system,&quot;SF Pro Display&quot;,&quot;SF Pro Text&quot;,Helvetica,sans-serif;" transform="matrix(1 0 0 1 776 1989)">can be adjusted by modifying the width of the blue rectangles.</text>
  <text style="stroke:none;fill:black;font-family:-apple-system,&quot;SF Pro Display&quot;,&quot;SF Pro Text&quot;,Helvetica,sans-serif;" transform="matrix(1 0 0 1 776 2007)">Modifications are automatically applied proportionally to all</text>
  <text style="stroke:none;fill:black;font-family:-apple-system,&quot;SF Pro Display&quot;,&quot;SF Pro Text&quot;,Helvetica,sans-serif;" transform="matrix(1 0 0 1 776 2025)">scales and weights.</text>
  <g id="" transform="matrix(1 0 0 1 1289 1933)">
   <path d="M 2.83203 3.11523 L 4.375 4.6582 C 5.22461 5.48828 6.19141 5.41992 7.06055 4.46289 L 17.2754 -6.66016 C 17.7051 -6.36719 18.0957 -6.37695 18.5645 -6.47461 L 19.6094 -6.68945 L 20.3027 -5.99609 L 20.2539 -5.47852 C 20.1855 -4.95117 20.3516 -4.53125 20.8496 -4.0332 L 21.6602 -3.22266 C 22.168 -2.71484 22.8223 -2.68555 23.3008 -3.16406 L 26.5527 -6.41602 C 27.0312 -6.89453 27.0117 -7.54883 26.5039 -8.05664 L 25.6836 -8.87695 C 25.1855 -9.375 24.7754 -9.55078 24.2383 -9.47266 L 23.7109 -9.41406 L 23.0566 -10.0781 L 23.3398 -11.2207 C 23.4863 -11.7871 23.3398 -12.2559 22.7148 -12.8613 L 20.3027 -15.2539 C 16.7578 -18.7793 12.2266 -18.6719 9.11133 -15.5371 C 8.69141 -15.1074 8.64258 -14.5215 8.91602 -14.0918 C 9.15039 -13.7207 9.62891 -13.4961 10.2734 -13.6621 C 11.7871 -14.043 13.3008 -13.9258 14.7852 -12.9199 L 14.1602 -11.3379 C 13.9258 -10.752 13.9453 -10.2734 14.1797 -9.83398 L 3.01758 0.439453 C 2.08008 1.30859 1.97266 2.25586 2.83203 3.11523 Z M 10.6738 -15.1465 C 13.3398 -17.1387 16.6504 -16.8262 19.0527 -14.4141 L 21.6797 -11.8066 C 21.9141 -11.5723 21.9434 -11.3867 21.8848 -11.0938 L 21.5039 -9.53125 L 23.0762 -7.95898 L 24.043 -8.04688 C 24.3262 -8.07617 24.4141 -8.05664 24.6387 -7.83203 L 25.2637 -7.20703 L 22.5098 -4.46289 L 21.8848 -5.07812 C 21.6602 -5.30273 21.6406 -5.40039 21.6699 -5.68359 L 21.7578 -6.64062 L 20.1953 -8.20312 L 18.5742 -7.89062 C 18.291 -7.83203 18.1445 -7.83203 17.9102 -8.07617 L 15.7324 -10.2539 C 15.5078 -10.4883 15.4785 -10.625 15.6055 -10.9473 L 16.5527 -13.2227 C 14.9512 -14.7559 12.8418 -15.6055 10.8008 -14.9512 C 10.7129 -14.9219 10.6445 -14.9414 10.6152 -14.9805 C 10.5859 -15.0293 10.5859 -15.0781 10.6738 -15.1465 Z M 4.10156 2.41211 C 3.61328 1.91406 3.78906 1.61133 4.12109 1.30859 L 15.0781 -8.80859 L 16.3086 -7.57812 L 6.15234 3.34961 C 5.84961 3.68164 5.46875 3.7793 5.06836 3.37891 Z"/>
  </g>
  <text style="stroke:none;fill:black;font-family:-apple-system,&quot;SF Pro Display&quot;,&quot;SF Pro Text&quot;,Helvetica,sans-serif;font-weight:bold;" transform="matrix(1 0 0 1 1289 1953)">Exporting</text>
  <text style="stroke:none;fill:black;font-family:-apple-system,&quot;SF Pro Display&quot;,&quot;SF Pro Text&quot;,Helvetica,sans-serif;" transform="matrix(1 0 0 1 1289 1971)">Symbols should be outlined when exporting to ensure the</text>
  <text style="stroke:none;fill:black;font-family:-apple-system,&quot;SF Pro Display&quot;,&quot;SF Pro Text&quot;,Helvetica,sans-serif;" transform="matrix(1 0 0 1 1289 1989)">design is preserved when submitting to Xcode.</text>
  <text id="template-version" style="stroke:none;fill:black;font-family:-apple-system,&quot;SF Pro Display&quot;,&quot;SF Pro Text&quot;,Helvetica,sans-serif;text-anchor:end;" transform="matrix(1 0 0 1 3036 1933)">Template v.1.0</text>
  <text style="stroke:none;fill:black;font-family:-apple-system,&quot;SF Pro Display&quot;,&quot;SF Pro Text&quot;,Helvetica,sans-serif;text-anchor:end;" transform="matrix(1 0 0 1 3036 1951)">Generated from arrow.2.circlepath</text>
  <text style="stroke:none;fill:black;font-family:-apple-system,&quot;SF Pro Display&quot;,&quot;SF Pro Text&quot;,Helvetica,sans-serif;text-anchor:end;" transform="matrix(1 0 0 1 3036 1969)">Typeset at 100 points</text>
  <text style="stroke:none;fill:black;font-family:-apple-system,&quot;SF Pro Display&quot;,&quot;SF Pro Text&quot;,Helvetica,sans-serif;" transform="matrix(1 0 0 1 263 726)">Small</text>
  <text style="stroke:none;fill:black;font-family:-apple-system,&quot;SF Pro Display&quot;,&quot;SF Pro Text&quot;,Helvetica,sans-serif;" transform="matrix(1 0 0 1 263 1156)">Medium</text>
  <text style="stroke:none;fill:black;font-family:-apple-system,&quot;SF Pro Display&quot;,&quot;SF Pro Text&quot;,Helvetica,sans-serif;" transform="matrix(1 0 0 1 263 1586)">Large</text>
 </g>
 <g id="Guides">
  <g id="H-reference" style="fill:#27AAE1;stroke:none;" transform="matrix(1 0 0 1 339 696)">
   <path d="M 54.9316 0 L 57.666 0 L 30.5664 -70.459 L 28.0762 -70.459 L 0.976562 0 L 3.66211 0 L 12.9395 -24.4629 L 45.7031 -24.4629 Z M 29.1992 -67.0898 L 29.4434 -67.0898 L 44.8242 -26.709 L 13.8184 -26.709 Z"/>
  </g>
  <line id="Baseline-S" style="fill:none;stroke:#27AAE1;opacity:1;stroke-width:0.577;" x1="263" x2="3036" y1="696" y2="696"/>
  <line id="Capline-S" style="fill:none;stroke:#27AAE1;opacity:1;stroke-width:0.577;" x1="263" x2="3036" y1="625.541" y2="625.541"/>
  <g id="H-reference" style="fill:#27AAE1;stroke:none;" transform="matrix(1 0 0 1 339 1126)">
   <path d="M 54.9316 0 L 57.666 0 L 30.5664 -70.459 L 28.0762 -70.459 L 0.976562 0 L 3.66211 0 L 12.9395 -24.4629 L 45.7031 -24.4629 Z M 29.1992 -67.0898 L 29.4434 -67.0898 L 44.8242 -26.709 L 13.8184 -26.709 Z"/>
  </g>
  <line id="Baseline-M" style="fill:none;stroke:#27AAE1;opacity:1;stroke-width:0.577;" x1="263" x2="3036" y1="1126" y2="1126"/>
  <line id="Capline-M" style="fill:none;stroke:#27AAE1;opacity:1;stroke-width:0.577;" x1="263" x2="3036" y1="1055.54" y2="1055.54"/>
  <g id="H-reference" style="fill:#27AAE1;stroke:none;" transform="matrix(1 0 0 1 339 1556)">
   <path d="M 54.9316 0 L 57.666 0 L 30.5664 -70.459 L 28.0762 -70.459 L 0.976562 0 L 3.66211 0 L 12.9395 -24.4629 L 45.7031 -24.4629 Z M 29.1992 -67.0898 L 29.4434 -67.0898 L 44.8242 -26.709 L 13.8184 -26.709 Z"/>
  </g>
  <line id="Baseline-L" style="fill:none;stroke:#27AAE1;opacity:1;stroke-width:0.577;" x1="263" x2="3036" y1="1556" y2="1556"/>
  <line id="Capline-L" style="fill:none;stroke:#27AAE1;opacity:1;stroke-width:0.577;" x1="263" x2="3036" y1="1485.54" y2="1485.54"/>
  <rect height="119.336" id="left-margin" style="fill:#00AEEF;stroke:none;opacity:0.4;" width="8.68482" x="1381.44" y="1030.79"/>
  <rect height="119.336" id="right-margin" style="fill:#00AEEF;stroke:none;opacity:0.4;" width="8.71196" x="1509.54" y="1030.79"/>
 </g>
 <g id="Symbols">
  <g id="Black-L" transform="matrix(1 0 0 1 2839.14 1556)">
   <path d="M 171.24 -45.7031 L 161.914 -45.7031 C 157.227 -77.2461 129.15 -103.271 94.3848 -103.271 C 77.9785 -103.271 63.0371 -97.0703 51.9531 -87.6953 C 46.6797 -83.4961 46.3867 -77.3438 49.1699 -73.3398 C 52.1973 -68.9453 58.2031 -67.1875 64.6973 -72.0215 C 72.6562 -78.6133 83.0566 -82.8125 94.3848 -82.8125 C 118.018 -82.8125 136.67 -66.1621 141.162 -45.7031 L 131.299 -45.7031 C 125.293 -45.7031 123.389 -40.4297 127.344 -35.0098 L 145.557 -10.2051 C 148.682 -5.9082 153.809 -6.00586 156.934 -10.2051 L 175.195 -35.0098 C 179.102 -40.332 177.393 -45.7031 171.24 -45.7031 Z M 17.2852 -24.707 L 26.8066 -24.707 C 31.543 6.83594 59.6191 32.8613 94.3848 32.8613 C 110.791 32.8613 125.732 26.6602 136.768 17.2363 C 142.041 13.0371 142.334 6.88477 139.6 2.88086 C 136.523 -1.51367 130.566 -3.22266 124.072 1.5625 C 116.113 8.20312 105.713 12.4023 94.3848 12.4023 C 70.7031 12.4023 52.0996 -4.24805 47.6074 -24.707 L 57.2266 -24.707 C 63.2324 -24.707 65.0879 -30.0293 61.1328 -35.4004 L 42.9688 -60.2051 C 39.8438 -64.502 34.668 -64.4043 31.5918 -60.2051 L 13.3301 -35.4004 C 9.42383 -30.0781 11.1328 -24.707 17.2852 -24.707 Z"/>
  </g>
  <g id="Heavy-L" transform="matrix(1 0 0 1 2544.01 1556)">
   <path d="M 168.604 -44.6289 L 159.326 -44.6289 C 155.029 -76.3184 127.1 -102.197 92.7734 -102.197 C 75.7324 -102.197 60.1562 -95.4102 48.9746 -84.9609 C 44.4336 -81.2012 44.2871 -75.8789 46.9238 -72.4121 C 49.7559 -68.75 54.9316 -67.5293 60.2539 -71.6309 C 68.75 -79.4922 80.2246 -84.4727 92.7734 -84.4727 C 117.529 -84.4727 137.207 -66.6992 141.309 -44.6289 L 131.348 -44.6289 C 125.83 -44.6289 124.121 -39.9414 127.686 -35.1074 L 144.824 -11.4258 C 147.656 -7.56836 152.246 -7.61719 155.029 -11.4258 L 172.266 -35.0586 C 175.781 -39.8926 174.219 -44.6289 168.604 -44.6289 Z M 16.7969 -25.7812 L 26.2207 -25.7812 C 30.5176 5.85938 58.4473 31.7871 92.7734 31.7871 C 109.863 31.7871 125.391 24.9512 136.621 14.502 C 141.113 10.7422 141.26 5.37109 138.672 1.95312 C 135.84 -1.75781 130.664 -2.92969 125.293 1.2207 C 116.895 9.08203 105.371 14.0137 92.7734 14.0137 C 68.0176 14.0137 48.3398 -3.71094 44.2383 -25.7812 L 54.0039 -25.7812 C 59.5703 -25.7812 61.2305 -30.4688 57.7148 -35.3516 L 40.5273 -58.9844 C 37.6953 -62.8418 33.1543 -62.793 30.3223 -58.9844 L 13.1348 -35.3516 C 9.57031 -30.5176 11.1328 -25.7812 16.7969 -25.7812 Z"/>
  </g>
  <g id="Bold-L" transform="matrix(1 0 0 1 2249.06 1556)">
   <path d="M 165.625 -43.4082 L 156.445 -43.4082 C 152.539 -75.2441 124.805 -101.025 90.9668 -101.025 C 73.1445 -101.025 56.9824 -93.5059 45.6055 -81.8848 C 41.9434 -78.6621 41.9434 -74.1699 44.3848 -71.4355 C 46.9727 -68.5059 51.2207 -67.8711 55.3223 -71.2402 C 64.3066 -80.4199 77.002 -86.2793 90.9668 -86.2793 C 116.943 -86.2793 137.744 -67.2852 141.504 -43.4082 L 131.396 -43.4082 C 126.416 -43.4082 124.951 -39.4043 128.027 -35.1562 L 144.043 -12.8418 C 146.533 -9.42383 150.439 -9.42383 152.93 -12.8418 L 168.994 -35.1074 C 172.07 -39.3555 170.703 -43.4082 165.625 -43.4082 Z M 16.2598 -27.002 L 25.5371 -27.002 C 29.3945 4.78516 57.1777 30.6152 90.9668 30.6152 C 108.838 30.6152 125.049 23.0469 136.426 11.4746 C 140.039 8.20312 140.039 3.71094 137.598 0.927734 C 135.059 -2.00195 130.762 -2.58789 126.66 0.78125 C 117.725 10.0098 105.029 15.8691 90.9668 15.8691 C 65.0391 15.8691 44.1895 -3.125 40.4785 -27.002 L 50.4395 -27.002 C 55.4199 -27.002 56.8848 -31.0059 53.8086 -35.2539 L 37.793 -57.5684 C 35.3027 -61.0352 31.3965 -60.9863 28.9062 -57.5684 L 12.8418 -35.3027 C 9.76562 -31.0547 11.1816 -27.002 16.2598 -27.002 Z"/>
  </g>
  <g id="Semibold-L" transform="matrix(1 0 0 1 1953.55 1556)">
   <path d="M 163.574 -42.5781 L 154.443 -42.5781 C 150.83 -74.4629 123.193 -100.244 89.7461 -100.244 C 71.3867 -100.244 54.7852 -92.2363 43.2617 -79.7852 C 40.2344 -76.9043 40.332 -73.0469 42.627 -70.752 C 45.0684 -68.3105 48.6816 -68.0664 51.9531 -70.9961 C 61.2793 -81.1035 74.8047 -87.5 89.7461 -87.5 C 116.553 -87.5 138.135 -67.7246 141.602 -42.5781 L 131.445 -42.5781 C 126.855 -42.5781 125.488 -39.0137 128.271 -35.2051 L 143.506 -13.8184 C 145.752 -10.6934 149.219 -10.6445 151.465 -13.8184 L 166.748 -35.1562 C 169.531 -39.0137 168.213 -42.5781 163.574 -42.5781 Z M 15.8691 -27.832 L 25.0488 -27.832 C 28.6621 4.05273 56.2988 29.7852 89.7461 29.7852 C 108.154 29.7852 124.756 21.7773 136.279 9.32617 C 139.258 6.44531 139.16 2.53906 136.914 0.244141 C 134.473 -2.19727 130.859 -2.39258 127.588 0.537109 C 118.311 10.6934 104.785 17.0898 89.7461 17.0898 C 62.9395 17.0898 41.3574 -2.68555 37.8906 -27.832 L 47.9492 -27.832 C 52.5879 -27.832 53.9062 -31.3965 51.1719 -35.2051 L 35.8887 -56.6406 C 33.6914 -59.7656 30.2246 -59.7656 27.9297 -56.6406 L 12.6953 -35.2539 C 9.91211 -31.3965 11.1816 -27.832 15.8691 -27.832 Z"/>
  </g>
  <g id="Medium-L" transform="matrix(1 0 0 1 1657.76 1556)">
   <path d="M 162.012 -41.9434 L 152.881 -41.9434 C 149.561 -73.9258 121.973 -99.6094 88.8184 -99.6094 C 70.0684 -99.6094 53.0762 -91.2598 41.5039 -78.2227 C 38.916 -75.5859 39.1113 -72.168 41.3086 -70.2148 C 43.6035 -68.2129 46.7773 -68.2617 49.3652 -70.752 C 58.9844 -81.5918 73.0957 -88.4766 88.8184 -88.4766 C 116.211 -88.4766 138.428 -68.0664 141.65 -41.9434 L 131.494 -41.9434 C 127.197 -41.9434 125.928 -38.7695 128.467 -35.2051 L 143.115 -14.502 C 145.166 -11.6211 148.291 -11.6211 150.391 -14.502 L 165.039 -35.2051 C 167.578 -38.7207 166.357 -41.9434 162.012 -41.9434 Z M 15.5762 -28.4668 L 24.707 -28.4668 C 28.0762 3.51562 55.6641 29.1992 88.8184 29.1992 C 107.617 29.1992 124.561 20.8008 136.182 7.76367 C 138.721 5.12695 138.525 1.66016 136.328 -0.292969 C 134.082 -2.29492 130.908 -2.19727 128.32 0.292969 C 118.75 11.1816 104.639 18.0664 88.8184 18.0664 C 61.4258 18.0664 39.209 -2.34375 35.9863 -28.4668 L 46.0938 -28.4668 C 50.3906 -28.4668 51.6602 -31.6895 49.1211 -35.2051 L 34.4727 -55.9082 C 32.4219 -58.7891 29.2969 -58.7891 27.1973 -55.9082 L 12.5488 -35.2539 C 10.0098 -31.6895 11.2305 -28.4668 15.5762 -28.4668 Z"/>
  </g>
  <g id="Regular-L" transform="matrix(1 0 0 1 1362.25 1556)">
   <path d="M 159.961 -41.1133 L 150.928 -41.1133 C 147.852 -73.1934 120.41 -98.7793 87.5977 -98.7793 C 68.3105 -98.7793 50.9277 -89.9414 39.209 -76.123 C 37.207 -73.877 37.5 -71.0449 39.5996 -69.5312 C 41.6992 -68.0176 44.2383 -68.5059 45.9961 -70.5078 C 55.957 -82.2266 70.8984 -89.6973 87.5977 -89.6973 C 115.771 -89.6973 138.818 -68.5059 141.748 -41.1133 L 131.543 -41.1133 C 127.588 -41.1133 126.514 -38.3789 128.711 -35.2539 L 142.578 -15.4785 C 144.385 -12.8906 147.07 -12.8418 148.926 -15.4785 L 162.793 -35.2051 C 165.039 -38.3789 163.965 -41.1133 159.961 -41.1133 Z M 15.2344 -29.2969 L 24.2676 -29.2969 C 27.2949 2.7832 54.7852 28.3691 87.5977 28.3691 C 106.934 28.3691 124.316 19.4824 136.035 5.66406 C 137.988 3.41797 137.695 0.537109 135.645 -0.976562 C 133.545 -2.49023 131.006 -2.00195 129.248 0.0488281 C 119.287 11.8164 104.395 19.2871 87.5977 19.2871 C 59.375 19.2871 36.377 -1.9043 33.4473 -29.2969 L 43.6523 -29.2969 C 47.6074 -29.2969 48.6816 -32.0312 46.4844 -35.1562 L 32.6172 -54.9316 C 30.8105 -57.5195 28.125 -57.5684 26.2695 -54.9316 L 12.4023 -35.2051 C 10.1074 -32.0312 11.2305 -29.2969 15.2344 -29.2969 Z"/>
  </g>
  <g id="Light-L" transform="matrix(1 0 0 1 1066.46 1556)">
   <path d="M 158.789 -39.9414 L 149.121 -39.9414 C 146.68 -72.1191 119.385 -97.8516 86.6699 -97.8516 C 67.2363 -97.8516 49.8535 -88.8184 38.2812 -74.7559 C 36.8164 -73.0469 37.0605 -70.8984 38.623 -69.7754 C 40.2344 -68.6035 42.1875 -68.9453 43.457 -70.5078 C 53.7109 -82.959 69.2383 -90.918 86.6699 -90.918 C 115.869 -90.918 139.795 -68.5547 142.188 -39.9414 L 130.957 -39.9414 C 127.734 -39.9414 126.758 -37.6953 128.613 -35.0098 L 142.188 -15.6738 C 143.75 -13.4277 145.947 -13.3789 147.559 -15.6738 L 161.084 -35.0098 C 163.037 -37.6953 162.061 -39.9414 158.789 -39.9414 Z M 14.502 -30.3711 L 24.1699 -30.3711 C 26.6602 1.75781 53.9062 27.4902 86.6699 27.4902 C 106.104 27.4902 123.535 18.457 135.059 4.39453 C 136.475 2.68555 136.279 0.537109 134.717 -0.634766 C 133.105 -1.80664 131.152 -1.41602 129.883 0.0976562 C 119.678 12.5977 104.15 20.6055 86.6699 20.6055 C 57.4219 20.6055 33.5449 -1.80664 31.1035 -30.3711 L 42.3828 -30.3711 C 45.6055 -30.3711 46.582 -32.6172 44.6777 -35.3027 L 31.1523 -54.6875 C 29.5898 -56.8848 27.3438 -56.9336 25.7812 -54.6875 L 12.207 -35.3516 C 10.3027 -32.6172 11.2793 -30.3711 14.502 -30.3711 Z"/>
  </g>
  <g id="Thin-L" transform="matrix(1 0 0 1 770.997 1556)">
   <path d="M 157.227 -38.4277 L 146.777 -38.4277 C 145.068 -70.6543 118.066 -96.582 85.4004 -96.582 C 65.8203 -96.582 48.3887 -87.3047 37.0605 -72.9004 C 36.3281 -71.9727 36.4258 -70.752 37.3535 -70.0684 C 38.2324 -69.3848 39.4043 -69.5801 40.1367 -70.5078 C 50.6836 -83.9355 67.041 -92.5781 85.4004 -92.5781 C 116.016 -92.5781 141.064 -68.6035 142.773 -38.4277 L 130.176 -38.4277 C 127.93 -38.4277 127.051 -36.8164 128.564 -34.7168 L 141.699 -15.918 C 142.92 -14.1602 144.482 -14.1602 145.752 -15.918 L 158.887 -34.7168 C 160.352 -36.8164 159.521 -38.4277 157.227 -38.4277 Z M 13.623 -31.8359 L 24.0723 -31.8359 C 25.7812 0.439453 52.7344 26.3184 85.4004 26.3184 C 104.98 26.3184 122.461 17.041 133.789 2.63672 C 134.521 1.75781 134.424 0.537109 133.496 -0.146484 C 132.617 -0.878906 131.445 -0.634766 130.713 0.244141 C 120.166 13.6719 103.809 22.3145 85.4004 22.3145 C 54.834 22.3145 29.7852 -1.66016 28.0762 -31.8359 L 40.6738 -31.8359 C 42.9199 -31.8359 43.7988 -33.4473 42.2852 -35.5469 L 29.1504 -54.3457 C 27.9297 -56.0547 26.3184 -56.1035 25.0977 -54.3457 L 11.9629 -35.5469 C 10.498 -33.4473 11.3281 -31.8359 13.623 -31.8359 Z"/>
  </g>
  <g id="Ultralight-L" transform="matrix(1 0 0 1 474.921 1556)">
   <path d="M 156.445 -37.6465 L 145.557 -37.6465 C 144.238 -69.9219 117.432 -95.8984 84.7656 -95.8984 C 65.1367 -95.8984 47.6562 -86.5234 36.4746 -71.9727 C 36.084 -71.4355 36.1328 -70.7031 36.6699 -70.2637 C 37.2559 -69.8242 37.9883 -69.9219 38.4277 -70.5078 C 49.1211 -84.4238 65.8691 -93.4082 84.7656 -93.4082 C 116.064 -93.4082 141.748 -68.6035 143.066 -37.6465 L 129.785 -37.6465 C 127.979 -37.6465 127.246 -36.3281 128.516 -34.5703 L 141.406 -16.0156 C 142.48 -14.5508 143.75 -14.5508 144.775 -16.0156 L 157.715 -34.5703 C 158.984 -36.3281 158.203 -37.6465 156.445 -37.6465 Z M 13.1348 -32.5684 L 24.0234 -32.5684 C 25.3418 -0.244141 52.1484 25.7324 84.7656 25.7324 C 104.443 25.7324 121.924 16.3574 133.105 1.80664 C 133.496 1.26953 133.447 0.537109 132.861 0.0488281 C 132.324 -0.390625 131.543 -0.244141 131.152 0.292969 C 120.459 14.209 103.662 23.2422 84.7656 23.2422 C 53.5156 23.2422 27.832 -1.61133 26.5137 -32.5684 L 39.7949 -32.5684 C 41.5527 -32.5684 42.334 -33.8379 41.0645 -35.6445 L 28.1738 -54.1504 C 27.0996 -55.6641 25.8301 -55.6641 24.7559 -54.1504 L 11.8652 -35.6445 C 10.5957 -33.8379 11.377 -32.5684 13.1348 -32.5684 Z"/>
  </g>
  <g id="Black-M" transform="matrix(1 0 0 1 2858.74 1126)">
   <path d="M 135.645 -44.1895 L 128.076 -44.1895 C 124.17 -68.5059 102.344 -88.8672 74.8047 -88.8672 C 62.9395 -88.8672 52.0996 -84.8145 43.8477 -78.8086 C 38.9648 -75.2441 38.5254 -69.8242 40.625 -66.1133 C 43.0176 -61.9629 48.4375 -59.8633 54.6875 -64.209 C 60.4004 -68.1152 67.334 -70.6055 74.8047 -70.6055 C 92.1875 -70.6055 105.713 -58.5449 109.424 -44.1895 L 101.367 -44.1895 C 96.3867 -44.1895 94.7754 -39.502 98.2422 -34.8633 L 113.525 -14.2578 C 116.26 -10.5957 120.752 -10.7422 123.389 -14.2578 L 138.77 -34.8633 C 142.188 -39.4531 140.723 -44.1895 135.645 -44.1895 Z M 13.6719 -26.2207 L 21.5332 -26.2207 C 25.3906 -1.9043 47.2656 18.457 74.8047 18.457 C 86.6211 18.457 97.4609 14.4043 105.713 8.44727 C 110.596 4.83398 111.035 -0.585938 108.936 -4.29688 C 106.543 -8.39844 101.123 -10.5469 94.873 -6.15234 C 89.1602 -2.29492 82.2266 0.195312 74.8047 0.195312 C 57.373 0.195312 43.8477 -11.8652 40.1855 -26.2207 L 47.9492 -26.2207 C 52.9297 -26.2207 54.541 -30.8594 51.0742 -35.5469 L 35.791 -56.1523 C 33.0566 -59.7656 28.5645 -59.668 25.9277 -56.1523 L 10.5469 -35.498 C 7.12891 -30.957 8.59375 -26.2207 13.6719 -26.2207 Z"/>
  </g>
  <g id="Heavy-M" transform="matrix(1 0 0 1 2563.52 1126)">
   <path d="M 133.057 -43.3105 L 125.684 -43.3105 C 122.07 -67.7246 100.342 -87.9883 73.291 -87.9883 C 60.7422 -87.9883 49.2676 -83.3008 40.7715 -76.2207 C 36.6211 -72.9492 36.3281 -68.2129 38.4277 -65.0391 C 40.6738 -61.5723 45.3613 -60.0586 50.5371 -63.8184 C 56.6895 -68.8477 64.6484 -72.0703 73.291 -72.0703 C 91.6504 -72.0703 106.055 -59.082 109.473 -43.3105 L 101.562 -43.3105 C 96.9727 -43.3105 95.5078 -39.1602 98.584 -35.0098 L 112.842 -15.5762 C 115.283 -12.2559 119.336 -12.3535 121.729 -15.5762 L 136.035 -34.9609 C 139.062 -39.1113 137.744 -43.3105 133.057 -43.3105 Z M 13.3301 -27.0996 L 20.8984 -27.0996 C 24.5117 -2.68555 46.2402 17.5781 73.291 17.5781 C 85.8398 17.5781 97.3145 12.8418 105.762 5.76172 C 109.912 2.53906 110.205 -2.19727 108.154 -5.37109 C 105.859 -8.83789 101.172 -10.3516 96.0449 -6.5918 C 89.8926 -1.5625 81.9336 1.66016 73.291 1.66016 C 54.9316 1.66016 40.5273 -11.3281 37.0605 -27.0996 L 44.7754 -27.0996 C 49.4141 -27.0996 50.8789 -31.25 47.7539 -35.4004 L 33.4961 -54.834 C 31.0547 -58.1543 27.0508 -58.0566 24.6582 -54.834 L 10.3516 -35.4492 C 7.27539 -31.2988 8.59375 -27.0996 13.3301 -27.0996 Z"/>
  </g>
  <g id="Bold-M" transform="matrix(1 0 0 1 2268.44 1126)">
   <path d="M 130.127 -42.334 L 122.998 -42.334 C 119.727 -66.8945 98.0957 -86.9629 71.582 -86.9629 C 58.252 -86.9629 46.0938 -81.543 37.3535 -73.2422 C 34.0332 -70.459 33.9355 -66.4551 35.9375 -63.8672 C 38.0859 -61.1328 41.9434 -60.3027 45.8984 -63.3789 C 52.5391 -69.6777 61.6211 -73.6816 71.582 -73.6816 C 90.9668 -73.6816 106.396 -59.7168 109.521 -42.334 L 101.807 -42.334 C 97.6074 -42.334 96.3379 -38.7695 98.9746 -35.1562 L 112.109 -17.041 C 114.258 -14.1113 117.676 -14.1602 119.824 -17.041 L 132.959 -35.1074 C 135.596 -38.7695 134.424 -42.334 130.127 -42.334 Z M 12.9395 -28.125 L 20.166 -28.125 C 23.4863 -3.56445 45.0684 16.5039 71.582 16.5039 C 84.9609 16.5039 97.1191 11.084 105.859 2.83203 C 109.18 0 109.277 -4.05273 107.275 -6.5918 C 105.127 -9.32617 101.27 -10.1562 97.3145 -7.08008 C 90.7227 -0.732422 81.5918 3.22266 71.582 3.22266 C 52.1973 3.22266 36.8164 -10.6934 33.6426 -28.125 L 41.2598 -28.125 C 45.459 -28.125 46.7285 -31.6406 44.043 -35.3027 L 30.957 -53.418 C 28.8086 -56.3477 25.3906 -56.2988 23.2422 -53.418 L 10.1074 -35.3027 C 7.42188 -31.6895 8.64258 -28.125 12.9395 -28.125 Z"/>
  </g>
  <g id="Semibold-M" transform="matrix(1 0 0 1 1972.88 1126)">
   <path d="M 128.125 -41.6504 L 121.143 -41.6504 C 118.115 -66.3086 96.582 -86.2793 70.4102 -86.2793 C 56.543 -86.2793 43.8965 -80.3711 35.0098 -71.2402 C 32.2266 -68.7012 32.2266 -65.1855 34.2285 -63.0859 C 36.2793 -60.8398 39.5996 -60.4492 42.6758 -63.0859 C 49.6582 -70.2637 59.5215 -74.8047 70.4102 -74.8047 C 90.5273 -74.8047 106.641 -60.1562 109.57 -41.6504 L 101.953 -41.6504 C 98.0469 -41.6504 96.875 -38.5254 99.2676 -35.2051 L 111.621 -18.0664 C 113.525 -15.3809 116.553 -15.3809 118.506 -18.0664 L 130.811 -35.2051 C 133.252 -38.5254 132.129 -41.6504 128.125 -41.6504 Z M 12.6465 -28.8086 L 19.7266 -28.8086 C 22.7539 -4.15039 44.2871 15.8203 70.4102 15.8203 C 84.375 15.8203 97.0215 9.91211 105.908 0.78125 C 108.643 -1.80664 108.643 -5.32227 106.689 -7.42188 C 104.59 -9.66797 101.318 -10.0098 98.1934 -7.37305 C 91.2598 -0.195312 81.3965 4.3457 70.4102 4.3457 C 50.3418 4.3457 34.2285 -10.2539 31.2988 -28.8086 L 38.8184 -28.8086 C 42.7734 -28.8086 43.8965 -31.9336 41.5039 -35.2051 L 29.1992 -52.3926 C 27.2461 -55.0781 24.2188 -55.0781 22.3145 -52.3926 L 9.96094 -35.2539 C 7.56836 -31.9336 8.64258 -28.8086 12.6465 -28.8086 Z"/>
  </g>
  <g id="Medium-M" transform="matrix(1 0 0 1 1677.02 1126)">
   <path d="M 126.611 -41.1133 L 119.775 -41.1133 C 116.895 -65.8691 95.4102 -85.7422 69.5312 -85.7422 C 55.2246 -85.7422 42.2363 -79.4922 33.252 -69.7266 C 30.8594 -67.3828 30.957 -64.2578 32.9102 -62.4512 C 34.9121 -60.5957 37.793 -60.5957 40.2344 -62.8418 C 47.5098 -70.7031 57.959 -75.6348 69.5312 -75.6348 C 90.1367 -75.6348 106.787 -60.5469 109.57 -41.1133 L 102.1 -41.1133 C 98.3398 -41.1133 97.3145 -38.3301 99.5117 -35.3027 L 111.182 -18.7988 C 112.988 -16.3574 115.723 -16.3086 117.48 -18.7988 L 129.199 -35.2539 C 131.396 -38.3301 130.42 -41.1133 126.611 -41.1133 Z M 12.4512 -29.3457 L 19.3359 -29.3457 C 22.2168 -4.58984 43.7012 15.2832 69.5312 15.2832 C 83.9355 15.2832 96.9238 8.98438 105.908 -0.78125 C 108.252 -3.125 108.154 -6.25 106.201 -8.05664 C 104.199 -9.91211 101.367 -9.91211 98.877 -7.61719 C 91.6992 0.244141 81.25 5.17578 69.5312 5.17578 C 48.9746 5.17578 32.3242 -9.91211 29.541 -29.3457 L 36.9629 -29.3457 C 40.6738 -29.3457 41.748 -32.1289 39.5508 -35.1562 L 27.832 -51.6602 C 26.0742 -54.1016 23.3398 -54.1504 21.582 -51.6602 L 9.86328 -35.2051 C 7.61719 -32.1289 8.64258 -29.3457 12.4512 -29.3457 Z"/>
  </g>
  <g id="Regular-M" transform="matrix(1 0 0 1 1381.44 1126)">
   <path d="M 124.609 -40.4297 L 117.92 -40.4297 C 115.283 -65.2832 93.8477 -85.0586 68.4082 -85.0586 C 53.5156 -85.0586 40.0879 -78.3203 30.9082 -67.7246 C 29.0527 -65.625 29.2969 -63.0371 31.25 -61.6699 C 33.1543 -60.3027 35.4492 -60.7422 37.0605 -62.5488 C 44.6777 -71.2402 55.9082 -76.7578 68.4082 -76.7578 C 89.6484 -76.7578 106.982 -60.9863 109.521 -40.4297 L 102.246 -40.4297 C 98.7793 -40.4297 97.9004 -38.0859 99.7559 -35.4004 L 110.693 -19.8242 C 112.256 -17.5781 114.6 -17.5293 116.211 -19.8242 L 127.1 -35.3516 C 129.053 -38.0859 128.125 -40.4297 124.609 -40.4297 Z M 12.1582 -30.0293 L 18.8965 -30.0293 C 21.5332 -5.17578 42.9199 14.5508 68.4082 14.5508 C 83.3008 14.5508 96.7773 7.76367 105.957 -2.7832 C 107.764 -4.88281 107.52 -7.51953 105.615 -8.88672 C 103.711 -10.2539 101.367 -9.76562 99.8047 -7.95898 C 92.2363 0.78125 81.0059 6.25 68.4082 6.25 C 47.1191 6.25 29.7852 -9.47266 27.2461 -30.0293 L 34.5703 -30.0293 C 38.0371 -30.0293 38.916 -32.4219 37.0605 -35.0586 L 26.123 -50.6348 C 24.5605 -52.8809 22.2168 -52.9297 20.6055 -50.6348 L 9.66797 -35.1074 C 7.76367 -32.4219 8.64258 -30.0293 12.1582 -30.0293 Z"/>
  </g>
  <g id="Light-M" transform="matrix(1 0 0 1 1085.58 1126)">
   <path d="M 123.584 -39.4043 L 116.357 -39.4043 C 114.209 -64.3066 92.9688 -84.1797 67.5781 -84.1797 C 52.5879 -84.1797 39.1113 -77.2949 30.0781 -66.4551 C 28.7109 -64.8926 28.9062 -62.9395 30.3711 -61.9141 C 31.8359 -60.8398 33.5938 -61.1816 34.8145 -62.5488 C 42.627 -71.875 54.3945 -77.832 67.5781 -77.832 C 89.7461 -77.832 107.861 -61.0352 109.961 -39.4043 L 101.709 -39.4043 C 98.9258 -39.4043 98.0957 -37.4512 99.707 -35.2051 L 110.352 -19.9707 C 111.67 -18.0664 113.623 -18.0664 114.941 -19.9707 L 125.586 -35.1562 C 127.246 -37.4512 126.416 -39.4043 123.584 -39.4043 Z M 11.5723 -31.0059 L 18.75 -31.0059 C 20.9473 -6.10352 42.1387 13.7695 67.5781 13.7695 C 82.5684 13.7695 96.0938 6.83594 105.078 -3.95508 C 106.445 -5.51758 106.25 -7.51953 104.785 -8.59375 C 103.32 -9.61914 101.562 -9.27734 100.342 -7.86133 C 92.5781 1.51367 80.8105 7.4707 67.5781 7.4707 C 45.3613 7.4707 27.2461 -9.375 25.1465 -31.0059 L 33.3984 -31.0059 C 36.2305 -31.0059 37.0117 -32.959 35.4492 -35.2051 L 24.8047 -50.4395 C 23.4375 -52.2949 21.5332 -52.3438 20.166 -50.4395 L 9.52148 -35.2539 C 7.91016 -32.959 8.69141 -31.0059 11.5723 -31.0059 Z"/>
  </g>
  <g id="Thin-M" transform="matrix(1 0 0 1 789.967 1126)">
   <path d="M 122.168 -38.0371 L 114.258 -38.0371 C 112.744 -62.9883 91.7969 -83.0566 66.4551 -83.0566 C 51.3184 -83.0566 37.793 -75.9277 29.0039 -64.8438 C 28.2715 -63.9648 28.3691 -62.793 29.1992 -62.1582 C 30.0781 -61.5234 31.1523 -61.7188 31.8359 -62.5488 C 39.8926 -72.7539 52.3926 -79.2969 66.4551 -79.2969 C 89.8926 -79.2969 109.033 -61.084 110.498 -38.0371 L 101.025 -38.0371 C 99.0723 -38.0371 98.3887 -36.6211 99.6094 -34.9121 L 109.912 -20.2148 C 110.938 -18.75 112.305 -18.75 113.33 -20.2148 L 123.584 -34.8633 C 124.854 -36.6211 124.17 -38.0371 122.168 -38.0371 Z M 10.7422 -32.2754 L 18.6523 -32.2754 C 20.166 -7.32422 41.1133 12.7441 66.4551 12.7441 C 81.5918 12.7441 95.1172 5.56641 103.955 -5.51758 C 104.639 -6.39648 104.541 -7.51953 103.711 -8.1543 C 102.881 -8.78906 101.807 -8.59375 101.123 -7.76367 C 93.0176 2.44141 80.5176 8.98438 66.4551 8.98438 C 43.0176 8.98438 23.877 -9.22852 22.4121 -32.2754 L 31.8848 -32.2754 C 33.8379 -32.2754 34.5215 -33.6914 33.3008 -35.4004 L 22.998 -50.0977 C 21.9727 -51.5625 20.6055 -51.5625 19.5801 -50.0977 L 9.32617 -35.4492 C 8.05664 -33.6914 8.74023 -32.2754 10.7422 -32.2754 Z"/>
  </g>
  <g id="Ultralight-M" transform="matrix(1 0 0 1 493.818 1126)">
   <path d="M 121.484 -37.3047 L 113.135 -37.3047 C 112.012 -62.3535 91.1621 -82.4707 65.8691 -82.4707 C 50.6836 -82.4707 37.1582 -75.1953 28.418 -63.9648 C 28.0273 -63.4766 28.0762 -62.7441 28.6133 -62.3047 C 29.1504 -61.9141 29.8828 -62.0117 30.2734 -62.5488 C 38.5254 -73.1934 51.3672 -80.0781 65.8691 -80.0781 C 89.9414 -80.0781 109.619 -61.084 110.791 -37.3047 L 100.684 -37.3047 C 99.1699 -37.3047 98.5352 -36.2305 99.5605 -34.7656 L 109.668 -20.3125 C 110.547 -19.0918 111.621 -19.0918 112.5 -20.3125 L 122.559 -34.7656 C 123.584 -36.2305 122.998 -37.3047 121.484 -37.3047 Z M 10.3027 -32.959 L 18.6035 -32.959 C 19.7754 -7.91016 40.5762 12.207 65.8691 12.207 C 81.1035 12.207 94.6289 4.93164 103.32 -6.29883 C 103.76 -6.83594 103.711 -7.51953 103.174 -7.95898 C 102.637 -8.34961 101.904 -8.25195 101.465 -7.71484 C 93.2617 2.92969 80.3711 9.81445 65.8691 9.81445 C 41.8457 9.81445 22.168 -9.17969 20.9961 -32.959 L 31.1035 -32.959 C 32.6172 -32.959 33.252 -34.0332 32.1777 -35.498 L 22.1191 -49.9512 C 21.2402 -51.1719 20.166 -51.1719 19.2871 -49.9512 L 9.22852 -35.498 C 8.1543 -34.0332 8.78906 -32.959 10.3027 -32.959 Z"/>
  </g>
  <g id="Black-S" transform="matrix(1 0 0 1 2874.98 696)">
   <path d="M 106.104 -42.1875 L 100.195 -42.1875 C 97.168 -61.2793 80.0293 -77.1973 58.4961 -77.1973 C 49.1699 -77.1973 40.625 -73.9746 34.1309 -69.1895 C 30.3711 -66.4062 30.0293 -62.207 31.6895 -59.3262 C 33.5449 -56.1523 37.7441 -54.541 42.5781 -57.9102 C 47.0703 -61.0352 52.5879 -63.0371 58.4961 -63.0371 C 72.2168 -63.0371 82.8613 -53.5156 85.7422 -42.1875 L 79.4434 -42.1875 C 75.5859 -42.1875 74.3164 -38.5742 77.002 -34.9609 L 88.916 -18.8965 C 91.0156 -16.0645 94.5312 -16.1621 96.582 -18.8965 L 108.545 -34.9609 C 111.182 -38.5254 110.059 -42.1875 106.104 -42.1875 Z M 10.6934 -28.2227 L 16.8457 -28.2227 C 19.873 -9.13086 36.9629 6.78711 58.4961 6.78711 C 67.8223 6.78711 76.3672 3.56445 82.8613 -1.2207 C 86.6211 -4.00391 86.9629 -8.20312 85.3027 -11.084 C 83.4473 -14.2578 79.248 -15.8691 74.4141 -12.5 C 69.9219 -9.375 64.4043 -7.37305 58.4961 -7.37305 C 44.8242 -7.37305 34.1797 -16.8945 31.2988 -28.2227 L 37.3535 -28.2227 C 41.2109 -28.2227 42.4805 -31.8359 39.7949 -35.4492 L 27.8809 -51.5137 C 25.7812 -54.3457 22.2656 -54.248 20.2148 -51.5137 L 8.25195 -35.4492 C 5.61523 -31.8848 6.73828 -28.2227 10.6934 -28.2227 Z"/>
  </g>
  <g id="Heavy-S" transform="matrix(1 0 0 1 2579.32 696)">
   <path d="M 104.248 -41.6504 L 98.5352 -41.6504 C 95.6543 -60.791 78.6133 -76.6113 57.4707 -76.6113 C 47.6074 -76.6113 38.5742 -72.9004 31.8848 -67.334 C 28.6133 -64.7461 28.418 -60.9863 30.0781 -58.4961 C 31.9336 -55.8105 35.6445 -54.6387 39.6484 -57.6172 C 44.4824 -61.5234 50.6836 -64.0137 57.4707 -64.0137 C 71.7773 -64.0137 83.0078 -53.9551 85.7422 -41.6504 L 79.6875 -41.6504 C 76.0254 -41.6504 74.8535 -38.3789 77.2949 -35.0586 L 88.4766 -19.873 C 90.3809 -17.2852 93.5547 -17.334 95.4102 -19.873 L 106.641 -35.0586 C 109.033 -38.3301 108.008 -41.6504 104.248 -41.6504 Z M 10.498 -28.8086 L 16.3574 -28.8086 C 19.2383 -9.66797 36.2793 6.15234 57.4707 6.15234 C 67.334 6.15234 76.3184 2.49023 83.0078 -3.125 C 86.2793 -5.66406 86.4746 -9.47266 84.8145 -11.9629 C 83.0078 -14.6484 79.2969 -15.7715 75.2441 -12.8418 C 70.459 -8.88672 64.209 -6.39648 57.4707 -6.39648 C 43.1641 -6.39648 31.8848 -16.5039 29.1504 -28.8086 L 35.0586 -28.8086 C 38.7207 -28.8086 39.8926 -32.0312 37.4512 -35.3516 L 26.3184 -50.5371 C 24.3652 -53.1738 21.1914 -53.0762 19.3359 -50.5371 L 8.1543 -35.3516 C 5.71289 -32.0801 6.78711 -28.8086 10.498 -28.8086 Z"/>
  </g>
  <g id="Bold-S" transform="matrix(1 0 0 1 2283.75 696)">
   <path d="M 102.148 -41.0156 L 96.6797 -41.0156 C 93.9941 -60.2539 77.002 -75.9277 56.25 -75.9277 C 45.8008 -75.9277 36.2793 -71.7285 29.3945 -65.2344 C 26.6602 -62.8906 26.6113 -59.6191 28.3203 -57.5684 C 30.127 -55.3711 33.252 -54.7852 36.377 -57.2754 C 41.5527 -62.1094 48.584 -65.1367 56.25 -65.1367 C 71.2402 -65.1367 83.1543 -54.4434 85.6934 -41.0156 L 79.9316 -41.0156 C 76.4648 -41.0156 75.4883 -38.1836 77.6367 -35.2051 L 87.9395 -20.9961 C 89.6484 -18.6035 92.4316 -18.6523 94.1406 -20.9961 L 104.443 -35.2051 C 106.592 -38.1348 105.664 -41.0156 102.148 -41.0156 Z M 10.3027 -29.4434 L 15.8691 -29.4434 C 18.5059 -10.2051 35.498 5.46875 56.25 5.46875 C 66.748 5.46875 76.3184 1.2207 83.1543 -5.22461 C 85.8887 -7.56836 85.9375 -10.8887 84.2285 -12.9395 C 82.4707 -15.1367 79.2969 -15.7227 76.1719 -13.1836 C 71.0449 -8.34961 64.0137 -5.32227 56.25 -5.32227 C 41.3086 -5.32227 29.3457 -16.0156 26.8066 -29.4434 L 32.5195 -29.4434 C 35.9375 -29.4434 36.9629 -32.2754 34.8145 -35.2539 L 24.5117 -49.4629 C 22.8027 -51.8555 20.0195 -51.8066 18.3105 -49.4629 L 7.95898 -35.2539 C 5.81055 -32.3242 6.78711 -29.4434 10.3027 -29.4434 Z"/>
  </g>
  <g id="Semibold-S" transform="matrix(1 0 0 1 1987.85 696)">
   <path d="M 100.684 -40.5762 L 95.4102 -40.5762 C 92.8711 -59.8633 75.9277 -75.4883 55.4688 -75.4883 C 44.5801 -75.4883 34.668 -70.8984 27.6367 -63.8184 C 25.293 -61.6211 25.3418 -58.6914 27.0996 -56.9336 C 28.8574 -55.127 31.5918 -54.834 34.1309 -57.0312 C 39.5508 -62.4512 47.1191 -65.8691 55.4688 -65.8691 C 70.8984 -65.8691 83.252 -54.7852 85.6934 -40.5762 L 80.0781 -40.5762 C 76.8066 -40.5762 75.8789 -37.9883 77.832 -35.3027 L 87.5488 -21.7285 C 89.1113 -19.5312 91.6504 -19.5312 93.2129 -21.7285 L 102.979 -35.2539 C 104.932 -37.9883 104.053 -40.5762 100.684 -40.5762 Z M 10.1562 -29.8828 L 15.4785 -29.8828 C 18.0664 -10.5957 34.9609 4.98047 55.4688 4.98047 C 66.3574 4.98047 76.2695 0.390625 83.252 -6.68945 C 85.5957 -8.88672 85.5469 -11.8164 83.8379 -13.5742 C 82.0801 -15.4297 79.3457 -15.625 76.8066 -13.4766 C 71.4355 -8.00781 63.8672 -4.58984 55.4688 -4.58984 C 40.0391 -4.58984 27.6367 -15.6738 25.1953 -29.8828 L 30.7617 -29.8828 C 34.0332 -29.8828 34.9609 -32.4707 33.0078 -35.1562 L 23.291 -48.7305 C 21.7285 -50.9277 19.1895 -50.9277 17.627 -48.7305 L 7.86133 -35.2051 C 5.9082 -32.4707 6.78711 -29.8828 10.1562 -29.8828 Z"/>
  </g>
  <g id="Medium-S" transform="matrix(1 0 0 1 1691.75 696)">
   <path d="M 99.6094 -40.2344 L 94.4336 -40.2344 C 91.9922 -59.6191 75.0977 -75.1465 54.834 -75.1465 C 43.6523 -75.1465 33.4473 -70.2637 26.3672 -62.6953 C 24.2676 -60.6445 24.4141 -58.0078 26.123 -56.4941 C 27.8809 -54.8828 30.3223 -54.9316 32.4219 -56.8848 C 37.9883 -62.7441 45.9961 -66.4551 54.834 -66.4551 C 70.6055 -66.4551 83.3496 -55.0293 85.6445 -40.2344 L 80.2246 -40.2344 C 77.0508 -40.2344 76.1719 -37.8906 77.9785 -35.3516 L 87.2559 -22.3145 C 88.7695 -20.2637 91.0645 -20.2148 92.5293 -22.3145 L 101.855 -35.3516 C 103.662 -37.8906 102.832 -40.2344 99.6094 -40.2344 Z M 10.0098 -30.2246 L 15.2344 -30.2246 C 17.6758 -10.8887 34.5703 4.63867 54.834 4.63867 C 66.0645 4.63867 76.2207 -0.244141 83.3496 -7.8125 C 85.4004 -9.86328 85.2539 -12.5488 83.5449 -14.1113 C 81.7871 -15.6738 79.3457 -15.625 77.2949 -13.6719 C 71.7285 -7.71484 63.7207 -4.00391 54.834 -4.00391 C 39.0625 -4.00391 26.3184 -15.4297 24.0234 -30.2246 L 29.3945 -30.2246 C 32.5684 -30.2246 33.4473 -32.5684 31.6406 -35.1074 L 22.3633 -48.1445 C 20.8984 -50.2441 18.6035 -50.2441 17.0898 -48.1445 L 7.8125 -35.1562 C 5.95703 -32.6172 6.78711 -30.2246 10.0098 -30.2246 Z"/>
  </g>
  <g id="Regular-S" transform="matrix(1 0 0 1 1395.82 696)">
   <path d="M 98.1934 -39.8438 L 93.1641 -39.8438 C 90.8691 -59.2285 73.9746 -74.6582 54.0039 -74.6582 C 42.4316 -74.6582 31.8848 -69.4824 24.6094 -61.2793 C 22.9492 -59.4238 23.1934 -57.0801 24.9023 -55.8594 C 26.6602 -54.6387 28.7109 -54.9805 30.1758 -56.6406 C 36.0352 -63.1348 44.5312 -67.2363 54.0039 -67.2363 C 70.2148 -67.2363 83.4473 -55.3711 85.6445 -39.8438 L 80.3711 -39.8438 C 77.3438 -39.8438 76.6113 -37.7441 78.2227 -35.4492 L 86.9141 -23.0957 C 88.2324 -21.1914 90.2832 -21.1426 91.6504 -23.0957 L 100.342 -35.4004 C 102.002 -37.7441 101.27 -39.8438 98.1934 -39.8438 Z M 9.86328 -30.6641 L 14.8926 -30.6641 C 17.1875 -11.2305 34.0332 4.15039 54.0039 4.15039 C 65.6738 4.15039 76.2207 -1.07422 83.4473 -9.27734 C 85.1074 -11.1328 84.8633 -13.5254 83.1543 -14.7461 C 81.4453 -15.9668 79.3945 -15.5273 77.9297 -13.916 C 72.1191 -7.37305 63.5742 -3.27148 54.0039 -3.27148 C 37.793 -3.27148 24.6094 -15.0879 22.4121 -30.6641 L 27.6367 -30.6641 C 30.6641 -30.6641 31.4453 -32.7637 29.834 -35.0098 L 21.1426 -47.4121 C 19.8242 -49.3164 17.7734 -49.3652 16.4062 -47.4121 L 7.71484 -35.0586 C 6.05469 -32.7637 6.78711 -30.6641 9.86328 -30.6641 Z"/>
  </g>
  <g id="Light-S" transform="matrix(1 0 0 1 1099.86 696)">
   <path d="M 97.2656 -38.916 L 91.7969 -38.916 C 89.8926 -58.3984 73.1934 -73.9258 53.2715 -73.9258 C 41.6016 -73.9258 31.0059 -68.5547 23.9258 -60.2051 C 22.6562 -58.7402 22.8027 -56.9824 24.1699 -56.0547 C 25.4883 -55.0781 27.0508 -55.3711 28.1738 -56.6406 C 34.1797 -63.7207 43.2129 -68.2129 53.2715 -68.2129 C 70.3125 -68.2129 84.2285 -55.4199 86.0352 -38.916 L 79.9316 -38.916 C 77.4902 -38.916 76.8066 -37.207 78.1738 -35.2539 L 86.6211 -23.2422 C 87.7441 -21.6309 89.4043 -21.582 90.5762 -23.2422 L 99.0234 -35.2539 C 100.391 -37.207 99.7559 -38.916 97.2656 -38.916 Z M 9.32617 -31.543 L 14.7949 -31.543 C 16.6504 -12.0605 33.3496 3.4668 53.2715 3.4668 C 64.9902 3.4668 75.5859 -1.9043 82.7148 -10.3027 C 83.9355 -11.7188 83.7402 -13.5254 82.4707 -14.4531 C 81.1035 -15.4297 79.541 -15.0879 78.418 -13.8184 C 72.4121 -6.73828 63.4277 -2.24609 53.2715 -2.24609 C 36.2305 -2.24609 22.3633 -14.9902 20.5566 -31.543 L 26.6602 -31.543 C 29.1016 -31.543 29.7852 -33.252 28.418 -35.1562 L 19.9707 -47.2168 C 18.8477 -48.8281 17.1387 -48.877 16.0156 -47.2168 L 7.56836 -35.2051 C 6.15234 -33.252 6.83594 -31.543 9.32617 -31.543 Z"/>
  </g>
  <g id="Thin-S" transform="matrix(1 0 0 1 804.127 696)">
   <path d="M 95.9961 -37.6953 L 89.9414 -37.6953 C 88.623 -57.2266 72.168 -72.9004 52.2949 -72.9004 C 40.4785 -72.9004 29.8828 -67.3828 22.9492 -58.7402 C 22.2656 -57.9102 22.3633 -56.8848 23.1445 -56.2988 C 23.9258 -55.7129 24.9023 -55.8594 25.5371 -56.6406 C 31.7871 -64.4531 41.4551 -69.4824 52.2949 -69.4824 C 70.4102 -69.4824 85.2539 -55.4688 86.5234 -37.6953 L 79.2969 -37.6953 C 77.6367 -37.6953 77.0508 -36.4746 78.0762 -35.0098 L 86.2305 -23.3887 C 87.0605 -22.168 88.2324 -22.168 89.1113 -23.3887 L 97.2168 -35.0098 C 98.291 -36.4746 97.7051 -37.6953 95.9961 -37.6953 Z M 8.59375 -32.666 L 14.6484 -32.666 C 15.9668 -13.1348 32.4219 2.53906 52.2949 2.53906 C 64.1602 2.53906 74.707 -3.02734 81.6895 -11.6211 C 82.373 -12.4512 82.2754 -13.5254 81.4941 -14.1113 C 80.7129 -14.6973 79.7363 -14.502 79.1016 -13.7207 C 72.8027 -5.9082 63.1836 -0.878906 52.2949 -0.878906 C 34.1797 -0.878906 19.3848 -14.8926 18.0664 -32.666 L 25.293 -32.666 C 27.002 -32.666 27.5391 -33.8867 26.5137 -35.3516 L 18.4082 -46.9727 C 17.5293 -48.1934 16.3574 -48.1934 15.4785 -46.9727 L 7.37305 -35.3516 C 6.29883 -33.8867 6.88477 -32.666 8.59375 -32.666 Z"/>
  </g>
  <g id="Ultralight-S" transform="matrix(1 0 0 1 507.904 696)">
   <path d="M 95.3613 -37.0605 L 88.9648 -37.0605 C 87.9883 -56.6406 71.6309 -72.3633 51.8066 -72.3633 C 39.8926 -72.3633 29.2969 -66.748 22.4609 -58.0078 C 22.0215 -57.4707 22.1191 -56.7871 22.6074 -56.3965 C 23.0957 -56.0547 23.7793 -56.1523 24.1699 -56.6406 C 30.5664 -64.8438 40.5762 -70.166 51.8066 -70.166 C 70.459 -70.166 85.7422 -55.4688 86.7676 -37.0605 L 79.0039 -37.0605 C 77.6855 -37.0605 77.1973 -36.1328 78.0762 -34.9121 L 85.9863 -23.5352 C 86.7188 -22.5098 87.6465 -22.5098 88.3789 -23.5352 L 96.3379 -34.9121 C 97.2168 -36.1328 96.6797 -37.0605 95.3613 -37.0605 Z M 8.20312 -33.252 L 14.5996 -33.252 C 15.625 -13.6719 31.9824 2.05078 51.8066 2.05078 C 63.7207 2.05078 74.2676 -3.56445 81.1523 -12.3535 C 81.543 -12.8418 81.4941 -13.5254 81.0059 -13.916 C 80.4688 -14.3066 79.834 -14.1602 79.4434 -13.6719 C 72.998 -5.46875 63.0371 -0.146484 51.8066 -0.146484 C 33.1543 -0.146484 17.8223 -14.8438 16.8457 -33.252 L 24.6094 -33.252 C 25.9277 -33.252 26.416 -34.1797 25.5371 -35.4492 L 17.5781 -46.8262 C 16.8945 -47.8516 15.918 -47.8516 15.2344 -46.8262 L 7.27539 -35.4492 C 6.39648 -34.1797 6.88477 -33.252 8.20312 -33.252 Z"/>
  </g>
 </g>
</svg>
